<svg width="26" height="26" viewBox="0 0 26 26" fill="none" xmlns="http://www.w3.org/2000/svg">
<path d="M6.03491 8.54422C5.72535 6.50159 7.16673 4.66372 9.3686 3.98934C9.75955 3.86968 10.1814 3.90369 10.5482 4.08441C10.9149 4.26514 11.1989 4.57898 11.3422 4.9619L12.0482 6.8469C12.1617 7.15012 12.1821 7.48034 12.1067 7.7952C12.0313 8.11006 11.8635 8.39522 11.6249 8.61409L9.5246 10.5405C9.42082 10.6355 9.3435 10.7559 9.3002 10.8898C9.2569 11.0237 9.24912 11.1665 9.2776 11.3043L9.29629 11.3888L9.34829 11.6008C9.3946 11.7796 9.46448 12.0315 9.56279 12.3321C9.75779 12.9293 10.069 13.732 10.5321 14.534C10.9952 15.3359 11.5347 16.007 11.954 16.4742C12.1725 16.7173 12.4007 16.9515 12.6381 17.1762L12.7031 17.2363C12.8082 17.3294 12.9355 17.3936 13.0728 17.4228C13.21 17.452 13.3525 17.4451 13.4864 17.4029L16.205 16.5473C16.5139 16.4502 16.8447 16.4476 17.1551 16.5399C17.4655 16.6321 17.7412 16.8149 17.947 17.0649L19.2332 18.6265C19.7694 19.2765 19.706 20.232 19.0894 20.8065C17.4042 22.377 15.087 22.6996 13.475 21.4028C11.4996 19.8087 9.8339 17.8652 8.56098 15.669C7.2787 13.4736 6.42172 11.057 6.03491 8.54422ZM10.9798 11.4107L12.7234 9.81172C13.2006 9.37397 13.5361 8.80366 13.6869 8.17393C13.8378 7.54421 13.7971 6.88378 13.57 6.27734L12.8632 4.39234C12.5748 3.62219 12.0035 2.99102 11.2659 2.62748C10.5282 2.26394 9.67972 2.1954 8.89329 2.43584C6.15923 3.27353 3.96385 5.72484 4.4286 8.78715C4.84579 11.5024 5.77114 14.1148 7.15616 16.4872C8.52912 18.8555 10.3256 20.9514 12.4561 22.6703C14.8733 24.6122 18.1022 23.95 20.1976 21.996C20.7975 21.4373 21.1616 20.6708 21.2155 19.8528C21.2694 19.0349 21.0091 18.2272 20.4877 17.5947L19.2015 16.033C18.7899 15.5329 18.2383 15.1671 17.6173 14.9827C16.9964 14.7982 16.3345 14.8035 15.7167 14.9979L13.4604 15.708C13.3593 15.6042 13.2605 15.4983 13.1638 15.3903C12.6999 14.8775 12.2896 14.3185 11.9394 13.7223C11.598 13.1207 11.3189 12.4858 11.1065 11.8275C11.0614 11.6897 11.0192 11.5511 10.9798 11.4115" fill="white"/>
</svg>
