<svg width="24" height="24" viewBox="0 0 24 24" fill="none" xmlns="http://www.w3.org/2000/svg">
<path d="M2.54014 4.71L3.25014 4L20.0001 20.75L19.2901 21.46L15.9501 18.11C14.5801 18.68 13.0801 19 11.5001 19C6.94014 19 3.00014 16.35 1.14014 12.5C2.11014 10.5 3.63014 8.83 5.50014 7.68L2.54014 4.71ZM11.5001 18C12.7901 18 14.0301 17.77 15.1701 17.34L14.0501 16.21C13.3201 16.71 12.4501 17 11.5001 17C9.00014 17 7.00014 15 7.00014 12.5C7.00014 11.55 7.29014 10.68 7.79014 9.95L6.24014 8.41C4.56578 9.38547 3.18961 10.7997 2.26014 12.5C4.04014 15.78 7.50014 18 11.5001 18ZM20.7401 12.5C18.9601 9.22 15.5001 7 11.5001 7C10.3501 7 9.23014 7.19 8.19014 7.53L7.41014 6.75C8.68014 6.26 10.0601 6 11.5001 6C16.0601 6 20.0001 8.65 21.8601 12.5C20.9514 14.3858 19.5439 15.987 17.7901 17.13L17.0701 16.4C18.6001 15.44 19.8701 14.1 20.7401 12.5ZM11.5001 8C14.0001 8 16.0001 10 16.0001 12.5C16.0001 13.32 15.7801 14.08 15.4001 14.74L14.6601 14C14.8801 13.54 15.0001 13.04 15.0001 12.5C15.0001 11.5717 14.6314 10.6815 13.975 10.0251C13.3186 9.36875 12.4284 9 11.5001 9C10.9601 9 10.4601 9.12 10.0001 9.34L9.26014 8.6C9.92014 8.22 10.6801 8 11.5001 8ZM8.00014 12.5C8.00014 13.4283 8.36889 14.3185 9.02526 14.9749C9.68164 15.6313 10.5719 16 11.5001 16C12.1701 16 12.7901 15.81 13.3201 15.5L8.50014 10.68C8.19014 11.21 8.00014 11.83 8.00014 12.5Z" fill="black" fill-opacity="0.5"/>
</svg>
