<svg width="24" height="24" viewBox="0 0 24 24" fill="none" xmlns="http://www.w3.org/2000/svg">
<path d="M20.9869 3.01249C20.6662 2.6918 20.2855 2.43742 19.8665 2.26386C19.4475 2.0903 18.9984 2.00098 18.5449 2.00098C18.0913 2.00098 17.6423 2.0903 17.2233 2.26386C16.8043 2.43742 16.4235 2.6918 16.1029 3.01249L4.01886 15.0985C3.63781 15.4793 3.3663 15.9556 3.23286 16.4775L2.01936 21.22C1.99259 21.325 1.9936 21.4353 2.0223 21.5398C2.051 21.6444 2.1064 21.7396 2.18306 21.8163C2.25972 21.893 2.355 21.9484 2.45955 21.9771C2.56409 22.0058 2.67431 22.0068 2.77936 21.98L7.52286 20.768C8.04512 20.6347 8.52182 20.3632 8.90286 19.982L20.9869 7.89599C21.6344 7.24835 21.9981 6.37005 21.9981 5.45424C21.9981 4.53843 21.6344 3.66013 20.9869 3.01249ZM16.9869 3.89649C17.4001 3.48322 17.9605 3.25102 18.5449 3.25097C19.1293 3.25092 19.6898 3.48303 20.1031 3.89624C20.5164 4.30945 20.7486 4.8699 20.7486 5.45431C20.7487 6.03872 20.5166 6.59922 20.1034 7.01249L18.9999 8.11599L15.8839 4.99949L16.9869 3.89649ZM14.9999 5.88349L18.1159 8.99999L8.01886 19.098C7.79651 19.3206 7.51824 19.4792 7.21336 19.557L3.49186 20.508L4.44386 16.7875C4.52186 16.4825 4.68036 16.2045 4.90236 15.9825L14.9999 5.88349Z" fill="#283991"/>
</svg>
