<svg width="40" height="40" viewBox="0 0 40 40" fill="none" xmlns="http://www.w3.org/2000/svg">
<rect width="40" height="40" rx="20" fill="#283991"/>
<path d="M25.2796 9.36182H14.7212C13.3542 9.36325 12.0437 9.89535 11.0771 10.8414C10.1106 11.7874 9.5669 13.07 9.56543 14.4079V24.7413C9.5669 26.0791 10.1106 27.3618 11.0771 28.3078C12.0437 29.2538 13.3542 29.7859 14.7212 29.7873H25.2796C26.6465 29.7859 27.957 29.2538 28.9235 28.3078C29.89 27.3618 30.4336 26.0791 30.435 24.7413V14.4079C30.4336 13.0701 29.89 11.7874 28.9235 10.8414C27.957 9.89536 26.6465 9.36325 25.2796 9.36182ZM28.454 24.7413C28.4531 25.5651 28.1183 26.3548 27.5232 26.9374C26.9281 27.52 26.1212 27.8477 25.2796 27.8488H14.7212C13.8794 27.8478 13.0725 27.5201 12.4773 26.9375C11.8821 26.3549 11.5474 25.5651 11.5464 24.7413V14.4079C11.5474 13.584 11.8821 12.7942 12.4773 12.2116C13.0725 11.6291 13.8794 11.3013 14.7212 11.3003H25.2796C26.1212 11.3014 26.9281 11.6292 27.5232 12.2118C28.1183 12.7943 28.4531 13.5841 28.454 14.4079V24.7413Z" fill="white"/>
<path d="M19.9993 14.468C18.9674 14.4681 17.9587 14.7676 17.1007 15.3288C16.2428 15.8899 15.5741 16.6874 15.1793 17.6205C14.7844 18.5536 14.6812 19.5803 14.8825 20.5708C15.0839 21.5613 15.5808 22.4712 16.3105 23.1853C17.0402 23.8994 17.9698 24.3857 18.9819 24.5827C19.9939 24.7797 21.043 24.6785 21.9963 24.292C22.9496 23.9055 23.7645 23.251 24.3377 22.4113C24.911 21.5716 25.217 20.5843 25.217 19.5744C25.2155 18.2205 24.6652 16.9225 23.687 15.9652C22.7089 15.0079 21.3826 14.4694 19.9993 14.468ZM19.9993 22.6456C19.3787 22.6455 18.772 22.4654 18.256 22.1278C17.74 21.7903 17.3379 21.3107 17.1004 20.7495C16.863 20.1883 16.8009 19.5708 16.922 18.975C17.0431 18.3793 17.342 17.8321 17.7809 17.4026C18.2197 16.9731 18.7789 16.6807 19.3876 16.5622C19.9963 16.4437 20.6272 16.5046 21.2005 16.737C21.7739 16.9695 22.264 17.3631 22.6088 17.8682C22.9536 18.3732 23.1376 18.967 23.1376 19.5744C23.1368 20.3887 22.8059 21.1695 22.2175 21.7453C21.6291 22.3211 20.8313 22.6449 19.9993 22.6456Z" fill="white"/>
<path d="M24.7832 13.6169C24.5252 13.6169 24.273 13.6917 24.0584 13.8319C23.8439 13.9722 23.6767 14.1715 23.5779 14.4048C23.4791 14.6381 23.4532 14.8947 23.5035 15.1424C23.5538 15.3901 23.678 15.6176 23.8604 15.7961C24.0428 15.9747 24.2753 16.0963 24.5283 16.1456C24.7813 16.1949 25.0436 16.1696 25.2819 16.073C25.5203 15.9764 25.724 15.8128 25.8674 15.6028C26.0107 15.3929 26.0872 15.146 26.0872 14.8935C26.0872 14.555 25.9498 14.2304 25.7053 13.991C25.4607 13.7516 25.1291 13.617 24.7832 13.6169Z" fill="white"/>
</svg>
