<svg width="27" height="27" viewBox="0 0 27 27" fill="none" xmlns="http://www.w3.org/2000/svg">
<path d="M0.589674 13.7616C0.589674 13.7616 1.83722 12.5589 3.36991 12.9962C4.93825 13.4336 6.22144 14.5269 7.18383 15.6202C8.14622 16.7135 8.57395 18.1348 8.57395 18.1348C8.57395 18.1348 13.5285 11.2834 17.485 7.12874C21.1563 3.26568 24.792 0.823929 25.2197 0.495933C25.6475 0.167937 26.2534 -0.232947 26.5742 0.167937C26.895 0.568821 27.1802 0.933261 26.8594 1.33415C26.5386 1.73503 21.4415 7.71185 18.8038 11.2834C15.8453 15.2922 14.0275 19.1188 11.1403 23.4921C10.4274 24.6219 8.64524 27.1729 7.21947 26.9907C6.82739 26.9543 5.68678 23.237 5.33034 22.5081C4.54617 20.9046 3.36991 18.5722 1.19562 16.3126C0.197589 15.3651 -0.586581 14.8549 0.589674 13.7616Z" fill="#283991"/>
</svg>
