<svg width="66" height="66" viewBox="0 0 66 66" fill="none" xmlns="http://www.w3.org/2000/svg">
<mask id="mask0_536_52" style="mask-type:alpha" maskUnits="userSpaceOnUse" x="0" y="0" width="66" height="66">
<circle cx="33" cy="33" r="33" fill="white"/>
</mask>
<g mask="url(#mask0_536_52)">
<path d="M-4 33C-4 51.2254 10.7746 66 29 66H30.8857H32.7714C50.9968 66 65.7714 51.2254 65.7714 33C65.7714 14.7746 50.9968 0 32.7714 0H30.8857H29C10.7746 0 -4 14.7746 -4 33ZM40.7771 12.1355C41.0111 12.4123 41.1813 12.8806 41.16 13.3064C41.1387 13.7961 41.2876 14.2006 41.6067 14.52C41.8832 14.7968 42.3512 15.5632 42.6703 16.2658L42.9424 16.8299C43.0812 17.1178 43.4844 17.1361 43.6488 16.8619C44.0317 16.2445 44.84 15.5419 45.1804 15.5419C45.4782 15.5419 45.3718 17.0323 45.0314 17.671C44.8613 18.0116 44.5209 18.3523 44.2657 18.4161C43.9253 18.5226 43.8615 18.6716 43.9466 19.0123C44.2869 20.1194 44.7124 22.291 44.7124 22.8871C44.7336 23.4406 44.7549 23.4832 44.9464 23.1426C45.2229 22.6742 47.1586 21.7161 47.8393 21.7161C48.3286 21.7161 48.3286 21.7161 47.967 22.6103C47.7755 23.1213 47.4352 23.7813 47.2224 24.1006C46.797 24.7181 45.6271 25.2077 45.0953 25.0161C44.8187 24.9097 44.7336 25.1226 44.606 26.0168C44.5209 26.6342 44.2657 27.72 44.0529 28.4226C43.8402 29.1252 43.6488 29.7213 43.6488 29.7639C43.6488 29.7852 43.8402 29.7213 44.0529 29.5935C44.6698 29.2742 45.776 29.3381 46.7332 29.7639C47.106 29.9318 47.1512 30.443 46.8136 30.6737L46.7119 30.7432C45.4782 31.5523 44.4146 31.68 43.6701 31.1264C43.3601 30.9048 42.925 31.0184 42.7629 31.3632L42.7341 31.4245C42.5427 31.829 41.9896 32.5742 41.5216 33.0852C40.6282 34.0432 40.4793 34.3413 40.9473 34.1497C41.4152 33.9794 42.2023 34.3839 43.0744 35.2355C44.0529 36.1723 43.8828 36.4065 42.2661 36.4065C41.0749 36.4065 40.3304 36.0019 40.0326 35.2142C39.9342 34.9515 39.6183 34.847 39.3826 34.999L38.8839 35.3206C38.3521 35.64 37.4587 36.0871 36.9056 36.3C36.3526 36.5129 35.842 36.7045 35.7995 36.7471C35.757 36.7897 35.9697 37.0239 36.2887 37.2794C36.5866 37.5135 37.0545 38.1097 37.2885 38.5781L37.3145 38.6288C37.4916 38.9749 37.2056 39.377 36.8205 39.3232C35.6931 39.1742 34.8848 38.5781 34.6296 37.7052C34.5019 37.2155 34.3317 37.0665 34.119 37.1516C33.9276 37.2155 32.7789 37.3858 31.5451 37.5135C29.0776 37.769 28.5033 37.9819 27.2482 39.1103C26.2697 40.0045 26.1421 40.6645 26.9717 40.6645C28.9287 40.6645 30.0348 43.2619 28.8649 45.0503C28.4182 45.7529 27.1844 46.2639 26.3974 46.0935C26.0792 46.0167 25.7709 46.2517 25.7607 46.5788L25.7379 47.3071C25.6741 49.6916 25.823 52.4806 26.0358 52.7361C26.3761 53.1619 25.3976 53.311 24.8233 52.9277C24.4191 52.651 24.2915 52.3955 24.2915 51.7781C24.2915 51.331 24.2064 50.8839 24.0787 50.7561C23.9511 50.6284 23.9937 50.3303 24.2064 49.9258C24.4616 49.4148 24.4829 48.989 24.2915 47.3071C24.1638 46.2 24.0362 45.2206 23.9724 45.1355C23.9086 45.0503 23.9724 43.411 24.0787 41.4948C24.1851 39.5787 24.3553 36.9387 24.4191 35.6187L24.5111 34.1588C24.5452 33.6165 24.2364 33.1108 23.7384 32.8935C23.2917 32.7019 21.7176 32.1058 20.2498 31.5735C18.7821 31.0626 17.0591 30.4239 16.4209 30.1897C15.6126 29.8916 14.3788 29.7 12.3793 29.5935C9.55012 29.4019 7.5293 29.1039 6.80606 28.6994C6.35936 28.4865 6.29554 27.7626 6.69971 27.6135C7.27404 27.4219 10.3584 27.7413 10.7201 28.0394C11.0179 28.2948 11.5284 28.3374 13.5918 28.2097C16.0593 28.0606 16.1444 28.0606 17.8036 28.7206C18.7395 29.0613 19.9308 29.4232 20.4625 29.4871C20.9943 29.5723 22.143 29.7639 23.0364 29.9342C24.4616 30.211 24.7169 30.211 25.27 29.9129C25.7379 29.6787 26.2272 29.6361 27.2482 29.7426L27.7698 29.7915C28.1919 29.8311 28.5356 29.4574 28.4607 29.04C28.1417 27.3794 27.6311 26.8045 26.2697 26.549C25.8868 26.4639 25.1211 26.2084 24.568 25.9529C23.3768 25.4206 20.4838 24.6116 18.4417 24.2497C17.4845 24.0794 16.8463 23.8452 16.4847 23.5045L16.291 23.3256C16.1631 23.2073 16.2467 22.9935 16.4209 22.9935C16.8463 22.9935 16.8676 22.951 16.6124 22.6529C16.3571 22.3335 16.3996 22.3123 17.0165 22.44C17.5058 22.5677 17.6972 22.5252 17.6972 22.3335C17.6972 22.1845 18.0163 22.3761 18.4205 22.7594C18.9948 23.3129 19.4202 23.5045 20.6965 23.7174C21.5687 23.8877 22.8663 24.1645 23.6108 24.3561C25.0785 24.7394 25.3551 24.6968 25.3551 23.9729C25.3551 23.249 26.2697 22.3548 27.0143 22.3548C27.3333 22.3548 27.695 22.2697 27.8226 22.1632C27.9289 22.0781 28.3118 22.0781 28.6947 22.1632C29.184 22.3123 29.4818 22.589 29.8221 23.2916C30.5666 24.8458 30.7155 24.8671 31.8217 23.5684C32.3535 22.9297 33.1405 21.6735 33.566 20.7368C33.9701 19.8213 34.7997 18.2671 35.3953 17.309C36.4802 15.5419 36.5653 15.0948 36.0973 13.9665C35.9271 13.5832 35.9484 13.5832 36.4802 13.9452C37.0333 14.2858 37.0758 14.2858 37.9054 13.86C38.3734 13.6258 38.7988 13.5194 38.8626 13.6258C39.0328 13.9026 38.6074 14.6264 38.1394 14.8819C37.9267 15.0097 37.48 15.6484 37.1609 16.3297C36.8418 17.011 36.3738 17.9477 36.1398 18.4161C34.0765 22.4187 32.5875 25.6974 32.5875 26.251C32.5875 26.549 32.6938 27.06 32.8214 27.4006C32.9704 27.8265 32.9703 28.38 32.7789 29.3806C32.5024 30.8497 32.5875 30.7432 30.0136 33.1277C29.418 33.6813 28.95 34.3413 28.8011 34.8523C28.6735 35.2994 28.4182 35.8529 28.248 36.0871C27.9289 36.5129 27.9289 36.4916 27.9077 36.0019C27.9077 35.2568 27.7588 35.5123 27.3759 36.9387C27.2057 37.6413 26.993 38.3865 26.9292 38.5994C26.8441 38.8974 27.0143 38.8335 27.7588 38.3013C28.716 37.62 29.9072 37.2794 31.375 37.2581H31.4783C31.7952 37.2581 31.9959 36.9182 31.8429 36.6406C31.5239 36.0019 31.6728 35.2355 32.3109 34.171C32.5449 33.809 32.6087 33.7877 32.8002 34.0645C33.1618 34.6181 33.2894 35.8316 33.0554 36.449C32.864 36.96 32.8853 37.0452 33.2043 37.0452C33.5072 37.0452 34.9958 36.6676 35.8822 36.3885C36.3348 36.246 36.5603 35.8693 36.2249 35.5335C35.9484 35.2355 35.7782 34.7671 35.7782 34.2987C35.7782 33.511 36.3738 31.7226 36.6291 31.7226C36.6929 31.7226 36.9694 32.1058 37.246 32.5742C37.7778 33.511 37.8841 34.9587 37.48 35.4484C36.7355 36.3426 38.8414 35.1929 40.224 33.9368L40.8791 33.3554C41.1161 33.145 41.0865 32.7664 40.8196 32.5955C40.5218 32.4252 40.1815 32.0632 40.0539 31.7864C39.7986 31.2542 39.7348 29.1039 39.9475 28.891C40.3729 28.4865 41.8407 30.2961 41.9896 31.4245C42.0747 31.9781 42.181 31.8503 42.9681 30.211C43.4573 29.189 43.8615 28.2523 43.8615 28.1458C43.8615 28.0181 43.6701 27.869 43.4361 27.7839C42.6065 27.5284 42.1598 26.6555 42.1598 25.2503C42.1598 23.5684 42.3937 23.1852 43.0106 23.7387C43.2659 23.9729 43.6275 24.42 43.819 24.7394C44.0104 25.08 44.2444 25.3355 44.3295 25.3355C44.5422 25.3355 44.5635 23.1213 44.372 22.1632C44.2657 21.6735 44.1168 21.5032 43.7764 21.5032C43.5212 21.5032 43.1383 21.3755 42.9468 21.2264C42.5852 20.9497 41.862 19.1613 42.0534 18.991C42.1172 18.9271 42.5001 19.0335 42.9043 19.2252C43.8828 19.6935 43.8828 19.6935 43.6488 19.0548C42.9894 17.3303 42.3299 16.2019 42.0321 16.3297C41.5642 16.5 40.7133 15.8187 40.3517 14.9884C39.9475 13.9877 39.9475 13.9877 40.5218 14.1794C40.6574 14.2164 40.7571 14.053 40.6622 13.9494L40.5218 13.7961C40.2028 13.4555 40.0326 13.0084 40.0326 12.4974C40.0326 11.6032 40.224 11.5181 40.7771 12.1355ZM23.0152 39.1742C23.0152 40.5794 22.7174 40.8774 22.5046 39.7065C22.3345 38.8761 21.7814 38.4077 20.7178 38.1948C20.3681 38.1183 20.0371 38.3846 20.0371 38.7426V41.8994V45.1512C20.0371 45.4965 20.291 45.7892 20.6327 45.8381C20.9518 45.8806 20.3987 45.9232 19.399 45.9232C18.3992 45.9232 17.8036 45.8806 18.0801 45.8381C18.5481 45.7529 18.5481 45.7103 18.5481 41.8994V38.7426C18.5481 38.3846 18.2171 38.1183 17.8674 38.1948C16.9952 38.3652 16.6549 38.6845 16.1869 39.7065C16.0984 39.9033 15.804 39.8401 15.804 39.6243V39.2168C15.7923 38.4912 16.3773 37.8968 17.1029 37.8968H19.399H21.7377C22.4432 37.8968 23.0152 38.4687 23.0152 39.1742ZM54.9228 39.6426C54.9228 40.8348 54.9866 41.1116 55.1781 40.92C55.327 40.771 55.8162 40.6645 56.263 40.6645C58.22 40.6645 59.241 43.4961 57.9009 45.1994C57.3265 45.9232 56.2204 46.2852 55.4759 46.0084C55.2135 45.8973 54.9228 46.0899 54.9228 46.3748V47.0516C54.9228 48.0523 54.9866 48.329 55.2419 48.329C55.4121 48.329 55.561 48.4142 55.561 48.5419C55.561 48.6697 54.9866 48.7548 54.2847 48.7548C53.5827 48.7548 53.0084 48.6697 53.0084 48.5419C53.0084 48.4142 53.1573 48.329 53.3274 48.329C53.5827 48.329 53.6465 48.0523 53.6465 47.0303C53.6465 45.8594 53.604 45.7529 53.2849 45.9019C51.7321 46.6045 50.0303 45.2419 50.0303 43.3258C50.0303 41.3884 51.7533 40.0897 53.2424 40.8774C53.6252 41.0903 53.6465 41.0264 53.6465 39.8129C53.6465 38.7484 53.5827 38.5355 53.2849 38.5142C53.0722 38.4929 53.2849 38.4077 53.7529 38.3226C54.4326 38.1989 54.8927 38.4547 54.9151 39.1452C54.9201 39.3002 54.9228 39.4673 54.9228 39.6426ZM32.3322 40.8135C32.0131 40.8987 31.9493 41.1755 31.9493 42.7297C31.9493 43.7516 32.0131 44.4968 32.0982 44.4116C32.1833 44.3265 32.6513 43.5813 33.1405 42.7297C33.9489 41.3458 34.0127 41.1755 33.6936 40.92C33.4171 40.7071 33.5872 40.6645 34.7359 40.6858C35.4804 40.7071 35.9271 40.7497 35.7357 40.8135C35.3953 40.8987 35.3528 41.1968 35.3528 43.3258C35.3528 45.4548 35.3953 45.7529 35.7357 45.8381C35.9271 45.9019 35.4379 45.9445 34.6083 45.9232C33.7999 45.9232 33.332 45.8806 33.6085 45.8381C34.0552 45.7529 34.0765 45.6465 34.0765 43.9432C34.0765 42.9639 34.0127 42.1548 33.9276 42.1548C33.7149 42.1548 31.9493 45.1781 31.9493 45.5187C31.9493 45.6465 32.1195 45.7955 32.3322 45.8381C32.5236 45.9019 32.0344 45.9445 31.2048 45.9232C30.3965 45.9232 29.9285 45.8806 30.205 45.8381C30.6517 45.7529 30.673 45.6677 30.673 43.3258C30.673 41.1968 30.6305 40.8987 30.3114 40.8135C30.0987 40.7497 30.5454 40.7071 31.3112 40.7071C32.0769 40.7071 32.5236 40.7497 32.3322 40.8135ZM38.7137 40.8135C38.1819 40.9413 38.2458 41.1968 39.1817 43.0065C39.6922 44.0284 40.0326 44.4968 40.1177 44.2839C40.1815 44.1135 40.4367 43.3897 40.692 42.7084L40.9462 42.0145C41.0737 41.6666 40.9624 41.2762 40.6707 41.0477C40.5137 40.9191 40.6046 40.6645 40.8076 40.6645H41.1813C42.2661 40.6645 42.3299 40.7071 41.7769 41.2606C41.5641 41.4735 40.8834 43.0277 40.2666 44.731C38.8626 48.5632 38.735 48.7548 37.8203 48.7548C36.9907 48.7548 36.5653 48.3503 36.6716 47.6477C36.7142 47.2858 36.8844 47.1581 37.2673 47.1581C37.6927 47.1581 37.8203 47.2858 37.8629 47.7329C37.9692 48.6271 38.501 48.4568 38.969 47.371C39.226 46.7752 39.2155 46.0979 38.9401 45.5104L38.0756 43.6665C37.3523 42.1123 36.6291 40.8561 36.4376 40.8135C36.2462 40.7497 36.778 40.7071 37.5863 40.7071C38.4159 40.7071 38.9052 40.7497 38.7137 40.8135ZM45.1378 42.3677C45.5207 43.3045 45.8823 44.071 45.9674 44.071C46.0312 44.071 46.3928 43.3258 46.7332 42.4103L46.9852 41.7629C47.2197 41.1604 47.789 40.7542 48.4349 40.7284C49.0305 40.7071 49.3283 40.7497 49.1369 40.8135C48.7966 40.8987 48.754 41.1968 48.754 43.3258C48.754 45.4548 48.7966 45.7529 49.1369 45.8381C49.3283 45.9019 48.8391 45.9445 48.0095 45.9232C47.2012 45.9232 46.7332 45.8806 47.0097 45.8381C47.4564 45.7529 47.4777 45.6677 47.4777 43.4748C47.4732 42.9909 46.8043 42.8683 46.6284 43.3191L46.5843 43.4323C46.1163 44.6671 45.6483 45.7529 45.5632 45.8381C45.4782 45.9445 45.0102 45.0077 44.4997 43.7729C44.0104 42.5381 43.5637 41.5161 43.5211 41.5161C43.4786 41.5161 43.4361 42.4316 43.4361 43.5387C43.4361 45.4548 43.4573 45.5826 43.9253 45.7742C44.2869 45.9232 44.1806 45.9658 43.3297 45.9658C42.7554 45.9445 42.415 45.9019 42.5852 45.8381C43.1383 45.6252 43.2234 45.3058 43.2234 43.2832C43.2234 41.4948 43.1808 41.3032 42.7554 41.0052C42.2874 40.6858 42.3299 40.6645 43.3722 40.6645C44.0274 40.6645 44.6166 41.0635 44.8597 41.6719L45.1378 42.3677Z" fill="#283991"/>
<path d="M26.3335 41.069C26.2697 41.1754 26.0995 42.1974 25.9932 43.347C25.8017 45.2419 25.8017 45.4761 26.1421 45.7103C26.6526 46.0935 26.993 46.0509 27.4822 45.5612C27.8438 45.1993 27.9077 44.8587 27.9077 43.4109C27.9077 42.4741 27.8013 41.5161 27.6949 41.2819C27.4609 40.8774 26.5463 40.7283 26.3335 41.069Z" fill="#283991"/>
<path d="M51.8809 41.2606C51.6044 41.5586 51.5193 42.0909 51.5193 43.4961C51.5193 45.1354 51.5618 45.3483 51.9873 45.6464C52.6041 46.0722 52.7105 46.0722 53.221 45.5612C53.5826 45.1993 53.6465 44.8586 53.6465 43.4748C53.6465 42.3251 53.5401 41.6864 53.3061 41.3457C52.9232 40.7709 52.3489 40.7496 51.8809 41.2606Z" fill="#283991"/>
<path d="M55.2845 41.2606C55.0079 41.5587 54.9229 42.0696 54.9229 43.3896C54.9229 44.8587 54.9867 45.1993 55.3483 45.5613C55.5823 45.7954 55.8801 45.9871 55.9864 45.9871C56.1141 45.9871 56.3906 45.7954 56.6246 45.5613C57.2202 44.9651 57.2627 41.7716 56.6671 41.2393C56.1566 40.7709 55.7099 40.7922 55.2845 41.2606Z" fill="#283991"/>
</g>
</svg>
