<svg width="93" height="93" viewBox="0 0 93 93" fill="none" xmlns="http://www.w3.org/2000/svg">
<mask id="mask0_270_116" style="mask-type:alpha" maskUnits="userSpaceOnUse" x="0" y="0" width="93" height="93">
<path d="M46.5 93C72.1812 93 93 72.1812 93 46.5C93 20.8188 72.1812 0 46.5 0C20.8188 0 0 20.8188 0 46.5C0 72.1812 20.8188 93 46.5 93Z" fill="#283991"/>
</mask>
<g mask="url(#mask0_270_116)">
<path d="M32.4303 55.2C32.4303 57.18 32.0107 57.6 31.711 55.95C31.4712 54.78 30.6919 54.12 29.1932 53.82C28.7003 53.7121 28.234 54.0874 28.234 54.5919V59.04V63.6222C28.234 64.1087 28.5917 64.5211 29.0733 64.59C29.5229 64.65 28.7436 64.71 27.3348 64.71C25.926 64.71 25.0867 64.65 25.4764 64.59C26.1358 64.47 26.1358 64.41 26.1358 59.04V54.5919C26.1358 54.0874 25.6695 53.7121 25.1767 53.82C23.9477 54.06 23.4682 54.51 22.8087 55.95C22.684 56.2274 22.2692 56.1384 22.2692 55.8343V55.26C22.2527 54.2376 23.077 53.4 24.0995 53.4H27.3348H30.6303C31.6245 53.4 32.4303 54.2059 32.4303 55.2Z" fill="white"/>
<path d="M45.5589 57.51C45.1093 57.63 45.0194 58.02 45.0194 60.21C45.0194 61.65 45.1093 62.7 45.2292 62.58C45.3491 62.46 46.0085 61.41 46.6979 60.21C47.8369 58.26 47.9268 58.02 47.4772 57.66C47.0876 57.36 47.3274 57.3 48.9459 57.33C49.995 57.36 50.6245 57.42 50.3547 57.51C49.8751 57.63 49.8152 58.05 49.8152 61.05C49.8152 64.05 49.8751 64.47 50.3547 64.59C50.6245 64.68 49.9351 64.74 48.7661 64.71C47.6271 64.71 46.9677 64.65 47.3573 64.59C47.9868 64.47 48.0167 64.32 48.0167 61.92C48.0167 60.54 47.9268 59.4 47.8069 59.4C47.5072 59.4 45.0194 63.66 45.0194 64.14C45.0194 64.32 45.2592 64.53 45.5589 64.59C45.8287 64.68 45.1393 64.74 43.9703 64.71C42.8313 64.71 42.1718 64.65 42.5615 64.59C43.191 64.47 43.2209 64.35 43.2209 61.05C43.2209 58.05 43.161 57.63 42.7114 57.51C42.4116 57.42 43.0411 57.36 44.1201 57.36C45.1992 57.36 45.8287 57.42 45.5589 57.51Z" fill="white"/>
<path d="M54.5511 57.51C53.8017 57.69 53.8916 58.05 55.2105 60.6C55.9299 62.04 56.4094 62.7 56.5293 62.4C56.6193 62.16 56.9789 61.14 57.3386 60.18L57.6968 59.2023C57.8764 58.712 57.7197 58.1619 57.3086 57.84C57.0873 57.6588 57.2155 57.3 57.5015 57.3H58.028C59.5567 57.3 59.6466 57.36 58.8673 58.14C58.5676 58.44 57.6084 60.63 56.7391 63.03C54.7609 68.43 54.581 68.7 53.2922 68.7C52.1232 68.7 51.5237 68.13 51.6736 67.14C51.7335 66.63 51.9733 66.45 52.5128 66.45C53.1123 66.45 53.2922 66.63 53.3521 67.26C53.502 68.52 54.2513 68.28 54.9107 66.75C55.2729 65.9105 55.2581 64.9561 54.87 64.1283L53.6518 61.53C52.6327 59.34 51.6136 57.57 51.3438 57.51C51.0741 57.42 51.8234 57.36 52.9624 57.36C54.1314 57.36 54.8208 57.42 54.5511 57.51Z" fill="white"/>
<path d="M63.6032 59.7C64.1427 61.02 64.6522 62.1 64.7721 62.1C64.8621 62.1 65.3716 61.05 65.8512 59.76L66.2063 58.8477C66.5368 57.9988 67.3389 57.4264 68.2491 57.39C69.0884 57.36 69.508 57.42 69.2383 57.51C68.7587 57.63 68.6987 58.05 68.6987 61.05C68.6987 64.05 68.7587 64.47 69.2383 64.59C69.508 64.68 68.8186 64.74 67.6496 64.71C66.5106 64.71 65.8512 64.65 66.2409 64.59C66.8703 64.47 66.9003 64.35 66.9003 61.26C66.8939 60.5781 65.9514 60.4053 65.7036 61.0406L65.6414 61.2C64.982 62.94 64.3225 64.47 64.2026 64.59C64.0827 64.74 63.4233 63.42 62.7039 61.68C62.0145 59.94 61.3851 58.5 61.3251 58.5C61.2652 58.5 61.2053 59.79 61.2053 61.35C61.2053 64.05 61.2352 64.23 61.8947 64.5C62.4042 64.71 62.2543 64.77 61.0554 64.77C60.2461 64.74 59.7665 64.68 60.0063 64.59C60.7856 64.29 60.9055 63.84 60.9055 60.99C60.9055 58.47 60.8456 58.2 60.2461 57.78C59.5867 57.33 59.6466 57.3 61.1153 57.3C62.0385 57.3 62.8687 57.8622 63.2113 58.7195L63.6032 59.7Z" fill="white"/>
<path d="M57.4585 17.1C57.7882 17.49 58.028 18.15 57.998 18.75C57.9681 19.44 58.1779 20.01 58.6275 20.46C59.0172 20.85 59.6766 21.93 60.1262 22.92L60.5096 23.7149C60.7053 24.1206 61.2734 24.1463 61.505 23.76C62.0445 22.89 63.1835 21.9 63.6631 21.9C64.0827 21.9 63.9329 24 63.4533 24.9C63.2135 25.38 62.7339 25.86 62.3742 25.95C61.8947 26.1 61.8047 26.31 61.9246 26.79C62.4042 28.35 63.0037 31.41 63.0037 32.25C63.0337 33.03 63.0636 33.09 63.3334 32.61C63.7231 31.95 66.4507 30.6 67.4098 30.6C68.0992 30.6 68.0992 30.6 67.5897 31.86C67.3199 32.58 66.8403 33.51 66.5406 33.96C65.9411 34.83 64.2926 35.52 63.5432 35.25C63.1535 35.1 63.0337 35.4 62.8538 36.66C62.7339 37.53 62.3742 39.06 62.0745 40.05C61.7748 41.04 61.505 41.88 61.505 41.94C61.505 41.97 61.7748 41.88 62.0745 41.7C62.9437 41.25 64.5024 41.34 65.8512 41.94C66.3765 42.1766 66.4402 42.8969 65.9646 43.222L65.8212 43.32C64.0827 44.46 62.5841 44.64 61.535 43.86C61.0982 43.5477 60.4852 43.7077 60.2567 44.1936L60.2161 44.28C59.9464 44.85 59.167 45.9 58.5076 46.62C57.2487 47.97 57.0389 48.39 57.6983 48.12C58.3577 47.88 59.4668 48.45 60.6957 49.65C62.0745 50.97 61.8347 51.3 59.5567 51.3C57.8782 51.3 56.8291 50.73 56.4094 49.62C56.2708 49.2499 55.8257 49.1025 55.4935 49.3168L54.7908 49.77C54.0415 50.22 52.7826 50.85 52.0033 51.15C51.224 51.45 50.5046 51.72 50.4446 51.78C50.3847 51.84 50.6844 52.17 51.134 52.53C51.5537 52.86 52.2131 53.7 52.5428 54.36L52.5794 54.4315C52.8289 54.9192 52.4259 55.4858 51.8834 55.41C50.2948 55.2 49.1558 54.36 48.7961 53.13C48.6162 52.44 48.3764 52.23 48.0767 52.35C47.8069 52.44 46.1883 52.68 44.4499 52.86C40.9729 53.22 40.1636 53.52 38.3951 55.11C37.0163 56.37 36.8365 57.3 38.0055 57.3C40.7631 57.3 42.3217 60.96 40.6732 63.48C40.0437 64.47 38.3052 65.19 37.1962 64.95C36.7479 64.8417 36.3134 65.1729 36.299 65.6338L36.267 66.66C36.1771 70.02 36.3869 73.95 36.6866 74.31C37.1662 74.91 35.7874 75.12 34.9781 74.58C34.4086 74.19 34.2288 73.83 34.2288 72.96C34.2288 72.33 34.1089 71.7 33.929 71.52C33.7492 71.34 33.8091 70.92 34.1089 70.35C34.4686 69.63 34.4985 69.03 34.2288 66.66C34.0489 65.1 33.8691 63.72 33.7792 63.6C33.6892 63.48 33.7792 61.17 33.929 58.47C34.0789 55.77 34.3187 52.05 34.4086 50.19L34.5382 48.1329C34.5864 47.3687 34.1512 46.6562 33.4494 46.35C32.82 46.08 30.6019 45.24 28.5337 44.49C26.4655 43.77 24.0377 42.87 23.1384 42.54C21.9994 42.12 20.2609 41.85 17.4434 41.7C13.4569 41.43 10.6094 41.01 9.59025 40.44C8.9608 40.14 8.87088 39.12 9.44038 38.91C10.2497 38.64 14.5959 39.09 15.1054 39.51C15.5251 39.87 16.2444 39.93 19.1519 39.75C22.6289 39.54 22.7488 39.54 25.0867 40.47C26.4056 40.95 28.0841 41.46 28.8335 41.55C29.5828 41.67 31.2014 41.94 32.4603 42.18C34.4686 42.57 34.8282 42.57 35.6076 42.15C36.267 41.82 36.9564 41.76 38.3951 41.91L39.13 41.979C39.7249 42.0348 40.2091 41.5081 40.1036 40.92C39.654 38.58 38.9347 37.77 37.0163 37.41C36.4768 37.29 35.3978 36.93 34.6184 36.57C32.9399 35.82 28.8634 34.68 25.986 34.17C24.6371 33.93 23.7379 33.6 23.2284 33.12L22.9554 32.8678C22.7751 32.7013 22.893 32.4 23.1384 32.4C23.7379 32.4 23.7679 32.34 23.4082 31.92C23.0485 31.47 23.1085 31.44 23.9777 31.62C24.6671 31.8 24.9369 31.74 24.9369 31.47C24.9369 31.26 25.3865 31.53 25.956 32.07C26.7653 32.85 27.3648 33.12 29.1632 33.42C30.3921 33.66 32.2205 34.05 33.2696 34.32C35.3378 34.86 35.7275 34.8 35.7275 33.78C35.7275 32.76 37.0163 31.5 38.0654 31.5C38.515 31.5 39.0246 31.38 39.2044 31.23C39.3543 31.11 39.8938 31.11 40.4334 31.23C41.1228 31.44 41.5424 31.83 42.022 32.82C43.0711 35.01 43.2809 35.04 44.8395 33.21C45.5889 32.31 46.6979 30.54 47.2974 29.22C47.8669 27.93 49.0359 25.74 49.8751 24.39C51.4038 21.9 51.5237 21.27 50.8643 19.68C50.6245 19.14 50.6544 19.14 51.4038 19.65C52.1831 20.13 52.2431 20.13 53.412 19.53C54.0715 19.2 54.6709 19.05 54.7609 19.2C55.0007 19.59 54.4012 20.61 53.7418 20.97C53.442 21.15 52.8126 22.05 52.363 23.01C51.9133 23.97 51.2539 25.29 50.9242 25.95C48.0167 31.59 45.9186 36.21 45.9186 36.99C45.9186 37.41 46.0685 38.13 46.2483 38.61C46.4581 39.21 46.4581 39.99 46.1883 41.4C45.7987 43.47 45.9186 43.32 42.2917 46.68C41.4525 47.46 40.793 48.39 40.5832 49.11C40.4034 49.74 40.0437 50.52 39.8039 50.85C39.3555 51.4484 39.3543 51.4202 39.3246 50.7357L39.3243 50.73C39.3243 49.68 39.1145 50.04 38.575 52.05C38.3352 53.04 38.0355 54.09 37.9455 54.39C37.8256 54.81 38.0654 54.72 39.1145 53.97C40.4633 53.01 42.1419 52.53 44.2101 52.5H44.3557C44.8022 52.5 45.0851 52.021 44.8695 51.63C44.4199 50.73 44.6297 49.65 45.5289 48.15C45.8586 47.64 45.9486 47.61 46.2183 48C46.7279 48.78 46.9077 50.49 46.578 51.36C46.3082 52.08 46.3382 52.2 46.7878 52.2C47.2146 52.2 49.3121 51.6679 50.5611 51.2747C51.1989 51.0739 51.5167 50.543 51.0441 50.07C50.6545 49.65 50.4147 48.99 50.4147 48.33C50.4147 47.22 51.2539 44.7 51.6136 44.7C51.7035 44.7 52.0932 45.24 52.4829 45.9C53.2322 47.22 53.3821 49.26 52.8126 49.95C51.7635 51.21 54.7309 49.59 56.6792 47.82L57.6023 47.0007C57.9362 46.7043 57.8945 46.1709 57.5185 45.93C57.0988 45.69 56.6193 45.18 56.4394 44.79C56.0797 44.04 55.9898 41.01 56.2895 40.71C56.889 40.14 58.9572 42.69 59.167 44.28C59.2869 45.06 59.4368 44.88 60.5458 42.57C61.2352 41.13 61.8047 39.81 61.8047 39.66C61.8047 39.48 61.535 39.27 61.2053 39.15C60.0363 38.79 59.4068 37.56 59.4068 35.58C59.4068 33.21 59.7365 32.67 60.6058 33.45C60.9655 33.78 61.475 34.41 61.7448 34.86C62.0145 35.34 62.3443 35.7 62.4642 35.7C62.7639 35.7 62.7939 32.58 62.5241 31.23C62.3742 30.54 62.1644 30.3 61.6848 30.3C61.3251 30.3 60.7856 30.12 60.5159 29.91C60.0063 29.52 58.9872 27 59.257 26.76C59.3469 26.67 59.8864 26.82 60.4559 27.09C61.8347 27.75 61.8347 27.75 61.505 26.85C60.5758 24.42 59.6466 22.83 59.227 23.01C58.5676 23.25 57.3686 22.29 56.859 21.12C56.2895 19.71 56.2895 19.71 57.0988 19.98C57.2899 20.0322 57.4304 19.802 57.2966 19.6559L57.0988 19.44C56.6492 18.96 56.4094 18.33 56.4094 17.61C56.4094 16.35 56.6792 16.23 57.4585 17.1Z" fill="white"/>
<path d="M77.3911 55.86C77.3911 57.54 77.4811 57.93 77.7508 57.66C77.9606 57.45 78.65 57.3 79.2795 57.3C82.0371 57.3 83.4758 61.29 81.5875 63.69C80.7782 64.71 79.2195 65.22 78.1705 64.83C77.8008 64.6735 77.3911 64.9448 77.3911 65.3463V66.3C77.3911 67.71 77.4811 68.1 77.8408 68.1C78.0805 68.1 78.2904 68.22 78.2904 68.4C78.2904 68.58 77.4811 68.7 76.4919 68.7C75.5028 68.7 74.6935 68.58 74.6935 68.4C74.6935 68.22 74.9033 68.1 75.1431 68.1C75.5028 68.1 75.5927 67.71 75.5927 66.27C75.5927 64.62 75.5328 64.47 75.0832 64.68C72.8951 65.67 70.4971 63.75 70.4971 61.05C70.4971 58.32 72.925 56.49 75.0232 57.6C75.5627 57.9 75.5927 57.81 75.5927 56.1C75.5927 54.6 75.5028 54.3 75.0832 54.27C74.7834 54.24 75.0832 54.12 75.7426 54C76.7004 53.8257 77.3486 54.1862 77.3802 55.1592C77.3873 55.3775 77.3911 55.613 77.3911 55.86Z" fill="white"/>
<path d="M37.1063 57.8702C37.0164 58.0202 36.7766 59.4602 36.6267 61.0802C36.357 63.7502 36.357 64.0802 36.8366 64.4102C37.5559 64.9502 38.0355 64.8902 38.7249 64.2002C39.2345 63.6902 39.3244 63.2102 39.3244 61.1702C39.3244 59.8502 39.1745 58.5002 39.0247 58.1702C38.6949 57.6002 37.4061 57.3902 37.1063 57.8702Z" fill="#283991"/>
<path d="M73.105 58.1398C72.7154 58.5598 72.5955 59.3098 72.5955 61.2898C72.5955 63.5998 72.6554 63.8998 73.2549 64.3198C74.1241 64.9198 74.274 64.9198 74.9934 64.1998C75.5029 63.6898 75.5928 63.2098 75.5928 61.2598C75.5928 59.6398 75.443 58.7398 75.1133 58.2598C74.5737 57.4498 73.7644 57.4198 73.105 58.1398Z" fill="#283991"/>
<path d="M77.9009 58.1398C77.5113 58.5598 77.3914 59.2798 77.3914 61.1398C77.3914 63.2098 77.4813 63.6898 77.9908 64.1998C78.3205 64.5298 78.7402 64.7998 78.8901 64.7998C79.0699 64.7998 79.4596 64.5298 79.7893 64.1998C80.6285 63.3598 80.6885 58.8598 79.8492 58.1098C79.1298 57.4498 78.5004 57.4798 77.9009 58.1398Z" fill="#283991"/>
</g>
</svg>
