<svg width="16.000000" height="16.000000" viewBox="0 0 16 16" fill="none" xmlns="http://www.w3.org/2000/svg" xmlns:xlink="http://www.w3.org/1999/xlink">
	<desc>
			Created with Pixso.
	</desc>
	<defs/>
	<path id="Vector" d="M0.34 8.15C0.34 8.15 1.08 7.44 1.99 7.7C2.92 7.96 3.68 8.6 4.25 9.25C4.82 9.9 5.08 10.74 5.08 10.74C5.08 10.74 8.01 6.68 10.36 4.22C12.53 1.93 14.69 0.48 14.94 0.29C15.19 0.09 15.55 -0.14 15.74 0.09C15.93 0.33 16.1 0.55 15.91 0.79C15.72 1.02 12.7 4.57 11.14 6.68C9.38 9.06 8.31 11.32 6.6 13.92C6.17 14.59 5.12 16.1 4.27 15.99C4.04 15.97 3.37 13.77 3.15 13.33C2.69 12.38 1.99 11 0.7 9.66C0.11 9.1 -0.35 8.8 0.34 8.15Z" fill="#283991" fill-opacity="1.000000" fill-rule="nonzero"/>
</svg>
