<svg width="27.000000" height="27.000000" viewBox="0 0 27 27" fill="none" xmlns="http://www.w3.org/2000/svg" xmlns:xlink="http://www.w3.org/1999/xlink">
	<desc>
			Created with Pixso.
	</desc>
	<defs/>
	<path id="Vector" d="M0.589661 13.7616C0.589661 13.7616 1.83722 12.559 3.36993 12.9962C4.93823 13.4336 6.22144 14.5269 7.18384 15.6202C8.14624 16.7135 8.57397 18.1349 8.57397 18.1349C8.57397 18.1349 13.5285 11.2833 17.485 7.12878C21.1563 3.26562 24.792 0.823975 25.2197 0.495972C25.6475 0.167969 26.2534 -0.23291 26.5742 0.167969C26.895 0.568848 27.1802 0.933228 26.8594 1.33411C26.5386 1.73499 21.4415 7.71179 18.8038 11.2833C15.8453 15.2922 14.0275 19.1188 11.1403 23.4921C10.4274 24.6218 8.64526 27.173 7.21948 26.9907C6.82739 26.9542 5.68677 23.2369 5.33032 22.5081C4.54614 20.9045 3.36993 18.5721 1.19562 16.3126C0.197571 15.3651 -0.586609 14.8549 0.589661 13.7616Z" fill="#283991" fill-opacity="1.000000" fill-rule="nonzero"/>
</svg>
